<?xml version="1.0" encoding="UTF-8"?>
<svg version="1.1" xmlns="http://www.w3.org/2000/svg" width="429" height="200">
<path d="M0 0 C2.89848666 0.55727667 5.81381909 0.84873271 8.74658203 1.16992188 C16.03743635 2.37616864 22.2189908 6.24209565 28.18408203 10.41992188 C30.66270423 12.66354054 32.27501393 14.63813692 34.18408203 17.41992188 C34.51408203 18.40992187 34.84408203 19.39992188 35.18408203 20.41992188 C35.64169922 20.87109375 36.09931641 21.32226562 36.57080078 21.78710938 C38.59503525 23.83585031 39.6747247 25.98860273 40.99658203 28.54492188 C42.84371747 32.0218827 44.73268999 35.3251643 46.99658203 38.54492188 C51.73032559 45.42462918 55.35728984 53.01295299 59.18408203 60.41992188 C61.89287538 61.77431855 64.19341471 61.48493638 67.18408203 61.41992188 C67.77576172 61.02160156 68.36744141 60.62328125 68.97705078 60.21289062 C87.29171785 47.93339932 87.29171785 47.93339932 95.91845703 47.18164062 C100.88009406 47.0595278 105.1438511 46.99368336 109.68408203 49.16992188 C112.61189307 50.88643479 114.99808319 52.79672327 117.18408203 55.41992188 C118.66240463 58.37656707 118.24440986 61.16221924 118.18408203 64.41992188 C114.50067693 68.43818199 111.05385563 70.9407644 106.18408203 73.41992188 C98.81459869 75.85533053 89.71562943 74.82114 82.18408203 73.41992188 C83.17408203 74.07992187 84.16408203 74.73992187 85.18408203 75.41992188 C85.18408203 76.07992187 85.18408203 76.73992187 85.18408203 77.41992188 C85.84408203 77.62617187 86.50408203 77.83242187 87.18408203 78.04492188 C91.37840316 79.96731906 94.8930304 82.16211319 98.18408203 85.41992188 C100.97186641 89.76256388 103.18709223 94.33845519 104.18408203 99.41992188 C104.27796829 101.81171851 104.31478772 104.2059717 104.31689453 106.59960938 C104.31832962 107.63518478 104.31832962 107.63518478 104.3197937 108.69168091 C104.32047264 110.14910982 104.31863835 111.60654179 104.31445312 113.06396484 C104.30911713 115.28034362 104.31439935 117.49651825 104.32080078 119.71289062 C104.32013963 121.13346398 104.3188577 122.55403722 104.31689453 123.97460938 C104.3157666 125.25835449 104.31463867 126.54209961 104.31347656 127.86474609 C104.1941035 131.14457741 103.80828537 134.20220636 103.18408203 137.41992188 C102.19408203 137.41992188 101.20408203 137.41992188 100.18408203 137.41992188 C98.91659254 134.88494289 99.00864079 133.01382613 98.93798828 130.17773438 C98.90511719 129.11039063 98.87224609 128.04304687 98.83837891 126.94335938 C98.77823816 124.71687201 98.72084444 122.49030835 98.66650391 120.26367188 C98.43157931 112.83473543 97.59308178 105.71773357 96.18408203 98.41992188 C90.62781273 91.64776256 84.91507085 86.59465584 77.18408203 82.41992188 C77.34706787 83.67023193 77.51005371 84.92054199 77.67797852 86.20874023 C78.29047936 91.74717668 78.31037046 97.23197755 78.28173828 102.79882812 C78.27961586 104.37784157 78.27961586 104.37784157 78.27745056 105.98875427 C78.27189499 109.32000687 78.25935091 112.65118992 78.24658203 115.98242188 C78.24156128 118.25390527 78.23699939 120.52538973 78.23291016 122.796875 C78.22194015 128.33791398 78.20524686 133.87891295 78.18408203 139.41992188 C76.86408203 141.06992188 75.54408203 142.71992188 74.18408203 144.41992188 C71.82805737 145.17721552 70.39100728 145.46015734 67.93408203 144.98242188 C67.35658203 144.79679688 66.77908203 144.61117187 66.18408203 144.41992188 C66.51408203 143.42992187 66.84408203 142.43992188 67.18408203 141.41992188 C68.50408203 140.75992188 69.82408203 140.09992188 71.18408203 139.41992188 C71.18408203 121.26992187 71.18408203 103.11992187 71.18408203 84.41992188 C70.85408203 84.08992188 70.52408203 83.75992188 70.18408203 83.41992188 C69.48541016 83.35933594 68.78673828 83.29875 68.06689453 83.23632812 C67.15681641 83.15253906 66.24673828 83.06875 65.30908203 82.98242188 C63.95169922 82.86060547 63.95169922 82.86060547 62.56689453 82.73632812 C60.18408203 82.41992188 60.18408203 82.41992188 58.18408203 81.41992188 C58.51408203 80.82179688 58.84408203 80.22367187 59.18408203 79.60742188 C60.39196191 77.36605717 60.39196191 77.36605717 60.18408203 74.41992188 C41.12195361 66.4974761 19.48308724 66.82420428 -0.81591797 66.41992188 C-2.34608551 66.38865204 -2.34608551 66.38865204 -3.90716553 66.35675049 C-20.8761662 66.01066877 -37.84576768 65.70362393 -54.81591797 65.41992188 C-55.14591797 64.42992188 -55.47591797 63.43992187 -55.81591797 62.41992188 C-47.96879577 58.49636078 -35.41621396 60.14543908 -26.73287964 59.97409058 C-22.15097685 59.88315846 -17.56937813 59.77943927 -12.98779297 59.67382812 C-11.65318275 59.64313988 -11.65318275 59.64313988 -10.29161072 59.61183167 C-0.79081133 59.38498541 8.696828 58.97246331 18.18408203 58.41992188 C16.20408203 55.77992187 14.22408203 53.13992187 12.18408203 50.41992188 C3.02694045 48.59088306 -5.94923411 47.99846634 -15.26904297 47.80273438 C-16.02412392 47.784296 -16.77920486 47.76585762 -17.55716705 47.7468605 C-38.9077548 47.22704806 -60.26707068 47.26845628 -81.62255859 47.28955078 C-87.39441239 47.29523394 -93.16621998 47.29185318 -98.9380722 47.286129 C-119.93717685 47.26827012 -140.9367 47.29171723 -161.93173981 47.7468605 C-163.62686931 47.78346752 -165.32205714 47.8174863 -167.01729584 47.848629 C-175.43780221 48.00987898 -183.61712213 48.26146855 -191.81591797 50.41992188 C-192.26652588 50.9376416 -192.71713379 51.45536133 -193.18139648 51.98876953 C-194.2561849 53.22363281 -195.33097331 54.45849609 -196.40576172 55.69335938 C-197.88550421 57.37624522 -197.88550421 57.37624522 -198.81591797 59.41992188 C-197.61064453 59.40832031 -196.40537109 59.39671875 -195.16357422 59.38476562 C-184.09513031 59.31325845 -173.03443518 59.44194099 -161.97018433 59.73831177 C-160.5546666 59.77550894 -159.13907455 59.80999531 -157.72341919 59.84152222 C-148.27947768 60.057008 -139.13765623 60.87054702 -129.81591797 62.41992188 C-130.14591797 63.07992187 -130.47591797 63.73992187 -130.81591797 64.41992188 C-145.66591797 64.74992187 -160.51591797 65.07992187 -175.81591797 65.41992188 C-176.14591797 65.74992187 -176.47591797 66.07992187 -176.81591797 66.41992188 C-178.04556274 66.44965088 -178.04556274 66.44965088 -179.30004883 66.47998047 C-212.07103277 66.42843744 -212.07103277 66.42843744 -243.10888672 75.57617188 C-244.81591797 76.41992188 -244.81591797 76.41992188 -247.81591797 76.41992188 C-248.31091797 77.90492187 -248.31091797 77.90492187 -248.81591797 79.41992188 C-249.36763672 79.53078125 -249.91935547 79.64164062 -250.48779297 79.75585938 C-258.75804385 82.11482355 -265.73223719 87.52799035 -271.81591797 93.41992188 C-272.47591797 92.75992188 -273.13591797 92.09992188 -273.81591797 91.41992188 C-277.77939702 96.42642173 -279.60614648 100.15110597 -280.81591797 106.41992188 C-282.13591797 106.08992188 -283.45591797 105.75992188 -284.81591797 105.41992188 C-283.65126862 97.94164712 -281.87527259 91.82651522 -277.53857422 85.58007812 C-273.71761679 80.74302122 -269.05162449 77.5962505 -263.81591797 74.41992188 C-263.81591797 74.08992188 -263.81591797 73.75992188 -263.81591797 73.41992188 C-264.51201172 73.57976562 -265.20810547 73.73960938 -265.92529297 73.90429688 C-272.74372533 75.12055778 -280.08445501 75.23650752 -286.75341797 73.23242188 C-290.84508206 71.65001035 -293.68390308 69.47363639 -296.81591797 66.41992188 C-298.29424057 63.46327668 -297.8762458 60.67762451 -297.81591797 57.41992188 C-294.80323298 52.11759629 -294.80323298 52.11759629 -291.99169922 50.13085938 C-287.98427308 47.87109372 -285.55053603 47.31813993 -281.00341797 47.16992188 C-273.03911251 47.18719803 -267.05531497 49.15163221 -260.08544922 52.88085938 C-255.7270211 55.41737441 -251.63581446 58.10934492 -247.81591797 61.41992188 C-244.29394587 61.4999667 -241.19610327 61.45997889 -237.81591797 60.41992188 C-237.55294922 59.56914063 -237.28998047 58.71835938 -237.01904297 57.84179688 C-232.63568585 45.37484611 -225.36485426 33.65514092 -217.64013672 22.99804688 C-216.39439793 21.23747386 -215.21110351 19.43146665 -214.08544922 17.59179688 C-211.43817383 13.46001525 -209.00047798 10.19207951 -204.84960938 7.48632812 C-196.32967618 3.20969451 -188.21072876 0.66113309 -178.75341797 -0.89257812 C-178.04441345 -1.01393127 -177.33540894 -1.13528442 -176.60491943 -1.26031494 C-121.8617873 -10.52569752 -54.35535142 -11.30432961 0 0 Z M-167.60888672 6.04638672 C-169.90206053 6.43450131 -172.19631133 6.74001632 -174.50341797 7.03320312 C-182.51212013 8.11966491 -188.93807908 9.84289164 -195.64404297 14.63867188 C-198.23164036 16.76087405 -200.52415067 18.98491912 -202.81591797 21.41992188 C-203.80591797 21.74992187 -204.79591797 22.07992187 -205.81591797 22.41992188 C-213.47496128 33.61390825 -219.52183551 45.00628679 -221.81591797 58.41992188 C-219.83591797 58.41992188 -217.85591797 58.41992188 -215.81591797 58.41992188 C-215.09404297 57.67742187 -214.37216797 56.93492188 -213.62841797 56.16992188 C-211.12999224 53.72701672 -208.57948595 51.55181718 -205.81591797 49.41992188 C-205.81591797 48.75992188 -205.81591797 48.09992187 -205.81591797 47.41992188 C-205.07341797 47.15179688 -204.33091797 46.88367187 -203.56591797 46.60742188 C-200.81793914 45.55042668 -200.81793914 45.55042668 -198.75341797 43.85742188 C-196.66501513 42.30796171 -195.34023231 41.92161023 -192.81591797 41.41992188 C-189.97882012 41.29636754 -187.16402331 41.22441879 -184.32592773 41.19873047 C-183.46144044 41.1872614 -182.59695314 41.17579233 -181.70626926 41.16397572 C-178.80665744 41.12709288 -175.90702358 41.09749538 -173.00732422 41.06835938 C-170.93341868 41.04456348 -168.85951531 41.02057722 -166.78561401 40.99641418 C-159.98329604 40.91996991 -153.18088462 40.85649003 -146.37841797 40.79492188 C-145.22214527 40.78416752 -144.06587257 40.77341316 -142.87456131 40.76233292 C-106.77704029 40.42906933 -70.68259237 40.32663168 -34.58430099 40.58612823 C-31.25600032 40.60740537 -27.92774218 40.62134389 -24.59939575 40.63323975 C-19.36933315 40.65300415 -14.13980605 40.69282774 -8.91000748 40.74866295 C-6.99670404 40.7662332 -5.08332835 40.77734032 -3.16994858 40.78141212 C-0.55584803 40.78845874 2.05684566 40.82015947 4.6706543 40.8581543 C5.79705904 40.8529606 5.79705904 40.8529606 6.94621944 40.84766197 C11.74854061 40.95173038 15.18616348 42.05079776 19.41447353 44.32663441 C22.32958554 46.12762905 24.83015486 48.18408912 27.43408203 50.41992188 C28.42923828 51.26554687 29.42439453 52.11117187 30.44970703 52.98242188 C32.78043192 55.06009663 35.00837696 57.1820538 37.18408203 59.41992188 C38.50408203 59.08992188 39.82408203 58.75992188 41.18408203 58.41992188 C39.86267585 47.05127218 35.60577385 37.5761145 29.05908203 28.23242188 C27.13562471 25.5944272 25.7676432 23.75846869 22.94189453 22.11914062 C22.36181641 21.88839844 21.78173828 21.65765625 21.18408203 21.41992188 C20.85408203 20.42992188 20.52408203 19.43992187 20.18408203 18.41992188 C18.73938311 17.29797484 17.27729508 16.19841711 15.80908203 15.10742188 C14.99697266 14.49253906 14.18486328 13.87765625 13.34814453 13.24414062 C5.83729815 8.91381315 -2.86261028 7.70193048 -11.31591797 6.29492188 C-12.28400391 6.12605469 -13.25208984 5.9571875 -14.24951172 5.78320312 C-23.62286321 4.18532978 -32.97430047 3.32901735 -42.46826172 2.88476562 C-43.35691422 2.84160721 -44.24556671 2.79844879 -45.16114807 2.75398254 C-85.52587265 0.82639123 -127.61871608 -1.05344436 -167.60888672 6.04638672 Z " fill="#C3A73A" transform="translate(303.81591796875,12.580078125)"/>
<path d="M0 0 C5.83360627 2.89285565 11.05363268 6.75856932 15.55859375 11.44921875 C17.78630772 14.7907897 18.72799883 18.13379304 19.62890625 21.9921875 C19.80164063 22.68505859 19.974375 23.37792969 20.15234375 24.09179688 C20.57271117 25.78494344 20.97743152 27.48196193 21.37890625 29.1796875 C21.70890625 29.5096875 22.03890625 29.8396875 22.37890625 30.1796875 C22.45367187 29.57382813 22.5284375 28.96796875 22.60546875 28.34375 C23.53181097 22.44058876 25.17017179 17.68385354 28.40234375 12.64453125 C32.54958826 7.47276981 37.84935089 2.88013889 43.84375 -0.0078125 C51.88756836 -2.58580051 60.78915059 -2.52302464 69.11328125 -1.4765625 C73.38730716 -0.61602037 76.77560296 0.62250452 80.37890625 3.1796875 C80.37890625 3.8396875 80.37890625 4.4996875 80.37890625 5.1796875 C81.52359375 5.581875 81.52359375 5.581875 82.69140625 5.9921875 C85.25271509 7.12392862 86.57583563 8.09192151 88.37890625 10.1796875 C88.37890625 10.8396875 88.37890625 11.4996875 88.37890625 12.1796875 C89.36890625 12.5096875 90.35890625 12.8396875 91.37890625 13.1796875 C92.36890625 15.1596875 93.35890625 17.1396875 94.37890625 19.1796875 C94.5490625 18.51582031 94.71921875 17.85195312 94.89453125 17.16796875 C96.31022194 12.00973404 97.56905635 8.12091153 101.37890625 4.1796875 C103.12855983 4.12538791 104.87870412 4.08675927 106.62890625 4.0546875 C107.6034375 4.03148438 108.57796875 4.00828125 109.58203125 3.984375 C112.39855605 4.18105969 113.98839661 4.73399834 116.37890625 6.1796875 C115.05890625 6.5096875 113.73890625 6.8396875 112.37890625 7.1796875 C112.37890625 7.8396875 112.37890625 8.4996875 112.37890625 9.1796875 C107.92390625 9.6746875 107.92390625 9.6746875 103.37890625 10.1796875 C101.07707945 16.3815645 99.88696079 21.68077369 99.7265625 28.2734375 C99.6991246 29.10500366 99.67168671 29.93656982 99.64341736 30.79333496 C99.59046559 32.53764289 99.54461234 34.28217978 99.50561523 36.02685547 C99.44153592 38.67433019 99.34014315 41.31866499 99.23632812 43.96484375 C98.76713476 54.16052186 98.76713476 54.16052186 101.375 63.8984375 C102.03628906 64.98125 102.69757813 66.0640625 103.37890625 67.1796875 C104.36890625 66.5196875 105.35890625 65.8596875 106.37890625 65.1796875 C106.70890625 49.9996875 107.03890625 34.8196875 107.37890625 19.1796875 C108.69890625 19.1796875 110.01890625 19.1796875 111.37890625 19.1796875 C111.62125 20.13488281 111.86359375 21.09007813 112.11328125 22.07421875 C114.36597162 30.82884346 114.36597162 30.82884346 117.31640625 39.3671875 C119.34782874 44.70068319 120.74461883 50.15087395 122.12890625 55.6796875 C122.46329712 57.00842896 122.46329712 57.00842896 122.80444336 58.36401367 C124.37890625 64.78621378 124.37890625 64.78621378 124.37890625 68.1796875 C127.84390625 67.1896875 127.84390625 67.1896875 131.37890625 66.1796875 C133.60398232 60.56918051 135.25550249 55.06600243 136.56640625 49.1796875 C136.74365234 48.40496094 136.92089844 47.63023437 137.10351562 46.83203125 C137.53358215 44.94903729 137.95696125 43.06451796 138.37890625 41.1796875 C139.36890625 40.1896875 140.35890625 39.1996875 141.37890625 38.1796875 C142.03890625 38.1796875 142.69890625 38.1796875 143.37890625 38.1796875 C144.03890625 34.8796875 144.69890625 31.5796875 145.37890625 28.1796875 C146.69890625 27.5196875 148.01890625 26.8596875 149.37890625 26.1796875 C149.43725046 30.70046612 149.47261877 35.22114703 149.50390625 39.7421875 C149.52066406 41.01900391 149.53742188 42.29582031 149.5546875 43.61132812 C149.5870178 49.83491009 149.61351831 55.32922678 147.37890625 61.1796875 C144.37890625 62.1796875 144.37890625 62.1796875 141.37890625 62.1796875 C140.76015625 63.571875 140.76015625 63.571875 140.12890625 64.9921875 C138.37890625 68.1796875 138.37890625 68.1796875 136.19140625 70.0546875 C134.37890625 71.1796875 134.37890625 71.1796875 125.37890625 72.1796875 C123.72890625 70.8596875 122.07890625 69.5396875 120.37890625 68.1796875 C117.44914974 60.62478238 115.19769808 53.07489747 113.37890625 45.1796875 C113.35908691 45.75936279 113.33926758 46.33903809 113.31884766 46.9362793 C113.22318024 49.58034687 113.11367172 52.2236692 113.00390625 54.8671875 C112.97296875 55.77919922 112.94203125 56.69121094 112.91015625 57.63085938 C112.71113671 62.19172381 112.52200503 66.04159025 110.37890625 70.1796875 C108.39890625 71.1696875 108.39890625 71.1696875 106.37890625 72.1796875 C103.40890625 71.6846875 103.40890625 71.6846875 100.37890625 71.1796875 C99.05890625 69.5296875 97.73890625 67.8796875 96.37890625 66.1796875 C95.71890625 61.8896875 95.05890625 57.5996875 94.37890625 53.1796875 C91.39373513 56.07439889 88.69420291 59.01771224 86.06640625 62.2421875 C83.12902947 65.64133531 80.34652011 67.63838834 76.2734375 69.48828125 C68.49360398 72.32751946 59.53263486 71.88731886 51.37890625 71.1796875 C47.19049818 70.37258255 43.26855336 68.91877124 39.37890625 67.1796875 C38.71890625 65.8596875 38.05890625 64.5396875 37.37890625 63.1796875 C36.49912109 62.81617188 36.49912109 62.81617188 35.6015625 62.4453125 C31.48571495 60.10166644 29.0477393 56.00803782 26.37890625 52.1796875 C24.1741859 48.30242068 22.69650431 44.43654276 21.37890625 40.1796875 C21.04890625 41.4996875 20.71890625 42.8196875 20.37890625 44.1796875 C19.71890625 44.1796875 19.05890625 44.1796875 18.37890625 44.1796875 C17.71890625 43.1896875 17.05890625 42.1996875 16.37890625 41.1796875 C15.71890625 42.1696875 15.05890625 43.1596875 14.37890625 44.1796875 C14.13082933 37.7296875 14.13082933 37.7296875 15.38671875 34.9453125 C15.71414062 34.36265625 16.0415625 33.78 16.37890625 33.1796875 C13.5010734 23.62770077 13.5010734 23.62770077 8.37890625 15.1796875 C8.37890625 14.5196875 8.37890625 13.8596875 8.37890625 13.1796875 C7.38890625 12.8496875 6.39890625 12.5196875 5.37890625 12.1796875 C5.37890625 11.5196875 5.37890625 10.8596875 5.37890625 10.1796875 C4.53328125 9.9115625 3.68765625 9.6434375 2.81640625 9.3671875 C-0.62109375 8.1796875 -0.62109375 8.1796875 -3.859375 6.640625 C-9.51592009 4.20978091 -15.52923116 4.37997456 -21.57421875 4.88232422 C-27.16076833 5.6939198 -32.00145436 8.02062079 -36.62109375 11.1796875 C-39.04495991 13.65229685 -40.94055738 16.15625677 -42.62109375 19.1796875 C-43.28109375 19.1796875 -43.94109375 19.1796875 -44.62109375 19.1796875 C-44.31171875 18.5815625 -44.00234375 17.9834375 -43.68359375 17.3671875 C-42.51899671 15.09011978 -42.51899671 15.09011978 -41.62109375 12.1796875 C-42.61109375 12.5096875 -43.60109375 12.8396875 -44.62109375 13.1796875 C-44.29109375 11.8596875 -43.96109375 10.5396875 -43.62109375 9.1796875 C-32.26011202 0.23955047 -32.26011202 0.23955047 -26.26171875 -1.421875 C-17.73868873 -2.70789432 -8.19177266 -2.91078216 0 0 Z M41.1015625 6.34765625 C36.22693043 9.62771714 32.84419824 13.45406996 30.06640625 18.62109375 C28.06241723 22.73905284 28.06241723 22.73905284 27.37890625 27.1796875 C28.03890625 27.1796875 28.69890625 27.1796875 29.37890625 27.1796875 C29.92417969 25.98472656 29.92417969 25.98472656 30.48046875 24.765625 C35.64161453 13.88751773 35.64161453 13.88751773 39.390625 10.4921875 C44.04270521 7.42126618 49.25210041 5.32473089 54.37890625 3.1796875 C54.37890625 2.8496875 54.37890625 2.5196875 54.37890625 2.1796875 C48.99231864 1.79076421 45.68188658 3.71535695 41.1015625 6.34765625 Z M57.37890625 45.1796875 C55.14997438 49.7861467 54.83013023 54.14101973 54.37890625 59.1796875 C57.67890625 59.1796875 60.97890625 59.1796875 64.37890625 59.1796875 C63.71890625 54.5596875 63.05890625 49.9396875 62.37890625 45.1796875 C60.72890625 45.1796875 59.07890625 45.1796875 57.37890625 45.1796875 Z " fill="#9E9B7A" transform="translate(219.62109375,85.8203125)"/>
<path d="M0 0 C5.60107492 1.66720959 9.95330049 4.04483446 14.18359375 8.0859375 C18.29060949 12.95287922 20.37925918 17.90510143 22 24 C22.5878125 25.7634375 22.5878125 25.7634375 23.1875 27.5625 C23.455625 28.366875 23.72375 29.17125 24 30 C23.34 30.99 22.68 31.98 22 33 C21.54398739 35.50896686 21.54398739 35.50896686 21.375 38.1875 C21.30023438 39.08855469 21.22546875 39.98960937 21.1484375 40.91796875 C21.09945312 41.60503906 21.05046875 42.29210937 21 43 C20.06558465 44.27310312 19.12732889 45.543388 18.1875 46.8125 C17.66542969 47.52019531 17.14335937 48.22789062 16.60546875 48.95703125 C15.16871123 50.78531393 13.68184237 52.39896688 12 54 C11.34 54 10.68 54 10 54 C9.05598958 52.30729167 8.11197917 50.61458333 7.16796875 48.921875 C6.04943567 46.96915855 6.04943567 46.96915855 4.5625 45.30078125 C2.27335292 41.93001217 1.12419695 38.27542812 -0.1875 34.4375 C-0.46013672 33.66986328 -0.73277344 32.90222656 -1.01367188 32.11132812 C-3 26.40125705 -3 26.40125705 -3 23 C-0.69 22.67 1.62 22.34 4 22 C3.62288496 18.81482832 2.94897318 16.91891783 1.22265625 14.17578125 C0.15337891 12.75845703 0.15337891 12.75845703 -0.9375 11.3125 C-1.64777344 10.35988281 -2.35804688 9.40726563 -3.08984375 8.42578125 C-4.92776474 5.99351067 -4.92776474 5.99351067 -7 4 C-8.65 4 -10.3 4 -12 4 C-15.39794914 9.40441121 -15.39794914 9.40441121 -18.6875 14.875 C-20 17 -20 17 -22 19 C-22 19.99 -22 20.98 -22 22 C-20.02 22.33 -18.04 22.66 -16 23 C-16.35259234 31.44458652 -18.50374898 37.65467416 -22.6875 44.9375 C-23.3371875 45.9584375 -23.3371875 45.9584375 -24 47 C-24.33 47.66 -24.66 48.32 -25 49 C-25.66 49 -26.32 49 -27 49 C-27.33 50.32 -27.66 51.64 -28 53 C-29.32 52.67 -30.64 52.34 -32 52 C-32.99 50.68 -33.98 49.36 -35 48 C-35 47.34 -35 46.68 -35 46 C-35.66 46 -36.32 46 -37 46 C-39.53511077 36.94603298 -41.01002731 29.85669081 -38.9375 20.5625 C-37.46690426 15.71423461 -35.56936835 11.86056 -32.25 8.015625 C-23.20850894 -0.08404407 -11.66789443 -1.99458504 0 0 Z " fill="#E4CA2A" transform="translate(213,90)"/>
<path d="M0 0 C1.65 0 3.3 0 5 0 C9.33343856 4.80799379 13.3320339 9.66477658 17 15 C16.505 17.475 16.505 17.475 16 20 C13.69 20 11.38 20 9 20 C12.2537761 30.22862594 15.43615906 39.430541 22 48 C22 48.99 22 49.98 22 51 C25.96038936 48.06308204 29.10812317 45.35080694 31.3125 40.875 C31.88396123 39.5872729 32.44661675 38.2955987 33 37 C33.65920237 35.66296056 34.32390242 34.32857604 35 33 C35.99 34.32 36.98 35.64 38 37 C36.66958425 46.01531729 36.66958425 46.01531729 33.875 50.125 C33.25625 50.74375 32.6375 51.3625 32 52 C31.34 52 30.68 52 30 52 C29.67 52.99 29.34 53.98 29 55 C27.35 55.66 25.7 56.32 24 57 C23.34 58.98 22.68 60.96 22 63 C21.01 62.67 20.02 62.34 19 62 C14.38596494 61.83521303 10.077538 62.10895006 5.5 62.6875 C1.66063697 63.08375225 -1.06989424 62.9327082 -4.6875 61.5625 C-5.780625 61.046875 -6.87375 60.53125 -8 60 C-8.33 60.33 -8.66 60.66 -9 61 C-10.65 61 -12.3 61 -14 61 C-13.67 62.32 -13.34 63.64 -13 65 C-12.34 65.33 -11.68 65.66 -11 66 C-11 67.65 -11 69.3 -11 71 C-13 71.66666667 -15 72.33333333 -17 73 C-17.495 70.03 -17.495 70.03 -18 67 C-17.505 66.01 -17.505 66.01 -17 65 C-17.165 64.38125 -17.33 63.7625 -17.5 63.125 C-18 61 -18 61 -18 59 C-20.64 56.36 -23.28 53.72 -26 51 C-26 50.34 -26 49.68 -26 49 C-25.34 49 -24.68 49 -24 49 C-24.33 47.68 -24.66 46.36 -25 45 C-24.01 45 -23.02 45 -22 45 C-21.01 46.32 -20.02 47.64 -19 49 C-18.01 49.33 -17.02 49.66 -16 50 C-15.67 48.68 -15.34 47.36 -15 46 C-14.34 46 -13.68 46 -13 46 C-12.731875 45.0925 -12.46375 44.185 -12.1875 43.25 C-11 40 -11 40 -9.5625 38.3125 C-7.33662539 35.01820558 -6.68494972 31.59285245 -5.8125 27.75 C-5.63525391 27.00492188 -5.45800781 26.25984375 -5.27539062 25.4921875 C-4.84165807 23.66347729 -4.41965403 21.83199221 -4 20 C-5.98 20 -7.96 20 -10 20 C-10.33 18.68 -10.66 17.36 -11 16 C-10.4225 15.505 -9.845 15.01 -9.25 14.5 C-6.80343293 11.78159215 -5.49658451 9.18446362 -3.94921875 5.90625 C-2.86440882 3.72770166 -1.55663316 1.86795979 0 0 Z M0 38 C-0.34019152 39.39417773 -0.67181779 40.79044658 -1 42.1875 C-1.185625 42.96480469 -1.37125 43.74210937 -1.5625 44.54296875 C-2.14608589 47.40448243 -2.14608589 47.40448243 -2 52 C1.3 52 4.6 52 8 52 C7.855625 50.4325 7.71125 48.865 7.5625 47.25 C7.48128906 46.36828125 7.40007812 45.4865625 7.31640625 44.578125 C7.03761535 42.30649548 6.61209423 40.20148177 6 38 C4.02 38 2.04 38 0 38 Z " fill="#4F5980" transform="translate(201,93)"/>
<path d="M0 0 C4.455 0.99 4.455 0.99 9 2 C9.66 2.99 10.32 3.98 11 5 C11.20638953 47.02090763 11.20638953 47.02090763 10 66 C8.02 67.32 6.04 68.64 4 70 C1.03466926 69.56069174 -0.2888879 68.78333407 -2.75 66.9375 C-3.86375 65.9784375 -3.86375 65.9784375 -5 65 C-6.89330905 57.02236769 -7.51879078 49.18055666 -8 41 C-14.93 41 -21.86 41 -29 41 C-28.88237323 46.56394538 -28.88237323 46.56394538 -28.72973633 52.12695312 C-28.67042038 57.75495247 -29.74621535 61.84173172 -32 67 C-35.21451269 68.60725635 -38.43612536 68.05748185 -42 68 C-41.67 67.01 -41.34 66.02 -41 65 C-38.525 64.505 -38.525 64.505 -36 64 C-35.67 55.09 -35.34 46.18 -35 37 C-34.01 36.34 -33.02 35.68 -32 35 C-22.43 35 -12.86 35 -3 35 C-2.21425412 38.14298353 -1.8495976 40.45977513 -1.75390625 43.625 C-1.72103516 44.49640625 -1.68816406 45.3678125 -1.65429688 46.265625 C-1.59310322 48.08841485 -1.53581076 49.91133986 -1.48242188 51.734375 C-1.44826172 52.60578125 -1.41410156 53.4771875 -1.37890625 54.375 C-1.34132202 55.56222656 -1.34132202 55.56222656 -1.30297852 56.7734375 C-0.9721249 59.20485164 -0.2094791 60.88046274 1 63 C1.99 63 2.98 63 4 63 C5.25274723 60.49450555 5.12029624 58.80264368 5.11352539 55.99951172 C5.11344986 54.95858368 5.11337433 53.91765564 5.11329651 52.84518433 C5.10813522 51.71807037 5.10297394 50.59095642 5.09765625 49.4296875 C5.0962413 48.27832306 5.09482635 47.12695862 5.09336853 45.94070435 C5.08775716 42.25211014 5.0752027 38.56357595 5.0625 34.875 C5.05748647 32.37890712 5.05292331 29.8828133 5.04882812 27.38671875 C5.03778403 21.25779191 5.0210348 15.12890024 5 9 C4.01 8.01 3.02 7.02 2 6 C1.34 6 0.68 6 0 6 C-1.09315246 10.5838914 -1.32282625 15.12511007 -1.5625 19.8125 C-1.62727539 20.99489258 -1.62727539 20.99489258 -1.69335938 22.20117188 C-1.79878321 24.13394215 -1.89983094 26.06695026 -2 28 C-3.32 29.32 -4.64 30.64 -6 32 C-19.86 31.505 -19.86 31.505 -34 31 C-34.33 30.67 -34.66 30.34 -35 30 C-35.33 23.07 -35.66 16.14 -36 9 C-37.32 7.68 -38.64 6.36 -40 5 C-40.33 5 -40.66 5 -41 5 C-41.81402907 15.14629089 -42.09734891 25.19344374 -41.96289062 35.37158203 C-41.91576136 40.3736289 -42.13442374 45.07027273 -43 50 C-43.66 49.34 -44.32 48.68 -45 48 C-46.10710606 40.17054595 -46.18616812 32.38716998 -46.18530273 24.49658203 C-46.18750878 22.24102428 -46.20577708 19.98594163 -46.22460938 17.73046875 C-46.2275407 16.28385582 -46.22952724 14.8372406 -46.23046875 13.390625 C-46.23457764 12.09157227 -46.23868652 10.79251953 -46.24291992 9.45410156 C-46.01197102 6.17021702 -45.42229462 3.94112348 -44 1 C-41.03 1 -38.06 1 -35 1 C-33.68 1.99 -32.36 2.98 -31 4 C-29.9609622 8.42682491 -29.68407049 12.78934632 -29.4375 17.3125 C-29.39431641 18.05306641 -29.35113281 18.79363281 -29.30664062 19.55664062 C-29.20129568 21.37091464 -29.10021684 23.1854355 -29 25 C-24.37557639 26.17695751 -19.91998229 26.11366931 -15.1875 26.0625 C-12.485625 26.041875 -9.78375 26.02125 -7 26 C-6.67 19.73 -6.34 13.46 -6 7 C-4.68 5.02 -3.36 3.04 -2 1 C-1.34 0.67 -0.68 0.34 0 0 Z " fill="#B8B8B8" transform="translate(155,89)"/>
<path d="M0 0 C5.85883539 0.48823628 9.83245377 2.18958012 15 5 C17.475 8.96 17.475 8.96 20 13 C20 15.31 20 17.62 20 20 C18.68 21.32 17.36 22.64 16 24 C13.36 23.67 10.72 23.34 8 23 C3.125 18.375 3.125 18.375 2 15 C-1.96697886 13.19682779 -5.6822542 12.50797009 -10 12 C-14.12723249 13.45667029 -16.5815982 14.60949165 -19.8125 17.625 C-22.11867272 20.71254045 -23.06052651 23.73437131 -23.71484375 27.5078125 C-24.63981188 35.52049415 -24.63981188 35.52049415 -23.20703125 43.37109375 C-21.55687021 46.81683232 -19.79131888 49.37664013 -17 52 C-12.4179095 53.4090942 -8.44729965 54.23217805 -3.6640625 53.46484375 C-0.74567213 52.71964906 2.13120346 51.91683188 5 51 C5.99 48.36 6.98 45.72 8 43 C7.31292969 43.01160156 6.62585938 43.02320313 5.91796875 43.03515625 C5.01691406 43.04417969 4.11585937 43.05320313 3.1875 43.0625 C1.84751953 43.07990234 1.84751953 43.07990234 0.48046875 43.09765625 C-2 43 -2 43 -5 42 C-4.67 40.68 -4.34 39.36 -4 38 C0.29 38 4.58 38 9 38 C9.33 38.33 9.66 38.66 10 39 C10 43.29 10 47.58 10 52 C1.79385081 57.75655242 1.79385081 57.75655242 -1.34375 58.71875 C-4.73395284 59.07771265 -7.91699637 58.84810311 -11.3125 58.5625 C-12.56675781 58.46066406 -13.82101563 58.35882813 -15.11328125 58.25390625 C-16.06589844 58.17011719 -17.01851562 58.08632812 -18 58 C-26.09980806 50.91266795 -26.09980806 50.91266795 -28 45.8125 C-30.22024397 39.07247366 -30.85626721 33.04906847 -30 26 C-28.72594095 20.61079835 -27.06646234 16.31256904 -23.5625 12 C-21 10 -21 10 -16 7 C-11.05 7 -6.1 7 -1 7 C0.32 7.99 1.64 8.98 3 10 C3 10.99 3 11.98 3 13 C3.66 13 4.32 13 5 13 C7.475 16.465 7.475 16.465 10 20 C11.32 19.67 12.64 19.34 14 19 C13.505 15.535 13.505 15.535 13 12 C10.04272325 8.70474877 7.30729258 6.98883968 3.25 5.25 C2.26515625 4.82203125 1.2803125 4.3940625 0.265625 3.953125 C-0.48203125 3.63859375 -1.2296875 3.3240625 -2 3 C-2 2.34 -2 1.68 -2 1 C-1.34 0.67 -0.68 0.34 0 0 Z " fill="#AEAEAE" transform="translate(77,91)"/>
<path d="M0 0 C0.99 0 1.98 0 3 0 C2.95359375 0.93199219 2.9071875 1.86398438 2.859375 2.82421875 C2.60563977 11.78650969 3.23944141 19.66641646 7 28 C10.73909239 33.20524029 10.73909239 33.20524029 15.83203125 36.9140625 C23.91350541 39.81510451 31.80423593 40.90120205 40.36328125 39.65625 C45.45139855 38.60171792 50.18085547 36.92765781 55 35 C57.03140957 31.95288565 57.52658726 29.86760435 57.9140625 26.2734375 C58.05797491 22.46630006 57.56560368 18.75908906 57 15 C56.34 14.34 55.68 13.68 55 13 C53.72382812 12.93941406 52.44765625 12.87882812 51.1328125 12.81640625 C49.46352984 12.73200432 47.79425963 12.64735614 46.125 12.5625 C45.28324219 12.52318359 44.44148438 12.48386719 43.57421875 12.44335938 C42.76855469 12.40146484 41.96289062 12.35957031 41.1328125 12.31640625 C40.01737061 12.26141968 40.01737061 12.26141968 38.87939453 12.20532227 C37 12 37 12 35 11 C35 12.98 35 14.96 35 17 C35.66 17.33 36.32 17.66 37 18 C36.34 18.66 35.68 19.32 35 20 C33.68 19.01 32.36 18.02 31 17 C31 15.35 31 13.7 31 12 C32.65 10.68 34.3 9.36 36 8 C44.6274658 7.79294082 52.59628191 7.78537311 61 10 C61.66 10.99 62.32 11.98 63 13 C63.05819424 16.24992446 63.09366116 19.49971435 63.125 22.75 C63.14175781 23.67039063 63.15851563 24.59078125 63.17578125 25.5390625 C63.18222656 26.42851562 63.18867187 27.31796875 63.1953125 28.234375 C63.20578613 29.05131836 63.21625977 29.86826172 63.22705078 30.70996094 C62.97829916 33.21887518 62.25700129 34.83395625 61 37 C55.75827818 41.12646186 51.03083743 42.70263993 44.5625 43.8125 C41.71361502 44.26049539 38.86273366 44.65206776 36 45 C35.13890625 45.10570312 34.2778125 45.21140625 33.390625 45.3203125 C26.38505635 45.71536336 19.4715094 43.47944577 13 41 C9.97917085 39.4106439 8.02803581 37.74381315 6 35 C-0.758028 23.48975139 -0.758028 23.48975139 -1.11352539 16.89355469 C-1.10828857 16.16040039 -1.10305176 15.42724609 -1.09765625 14.671875 C-1.09282227 13.47304687 -1.09282227 13.47304687 -1.08789062 12.25 C-1.07951172 11.425 -1.07113281 10.6 -1.0625 9.75 C-1.05798828 8.90953125 -1.05347656 8.0690625 -1.04882812 7.203125 C-1.03707961 5.13538599 -1.01914522 3.06768376 -1 1 C-0.67 0.67 -0.34 0.34 0 0 Z " fill="#B1B1B1" transform="translate(36,113)"/>
<path d="M0 0 C0.99 0.33 1.98 0.66 3 1 C6.64652619 6.6035717 8.04710476 11.63864803 9.1875 18.1875 C9.51377148 19.95192498 9.84057461 21.71625174 10.16796875 23.48046875 C10.30485107 24.25285889 10.4417334 25.02524902 10.58276367 25.82104492 C10.98177598 27.90482772 11.46462294 29.94747815 12 32 C12.19634033 31.410979 12.39268066 30.82195801 12.5949707 30.21508789 C15.72998047 20.81005859 18.86499023 11.4050293 22 2 C23.32 1.67 24.64 1.34 26 1 C24.62561977 8.30559891 22.93734037 15.49510231 21.0625 22.6875 C20.81048828 23.68072266 20.55847656 24.67394531 20.29882812 25.69726562 C18.52013669 32.54363545 16.26879524 38.71385532 13 45 C11.68 45 10.36 45 9 45 C6.139387 35.63266482 3.47363634 26.27460881 1.34472656 16.71118164 C0.44685119 12.71407809 -0.63613788 8.86327463 -2 5 C-2.66 4.67 -3.32 4.34 -4 4 C-4 3.01 -4 2.02 -4 1 C-2.68 0.67 -1.36 0.34 0 0 Z " fill="#BBBBBA" transform="translate(336,92)"/>
<path d="M0 0 C1.32 0.33 2.64 0.66 4 1 C4 2.32 4 3.64 4 5 C5.32 5.66 6.64 6.32 8 7 C9.6552641 11.20468439 11.2975309 15.414329 12.9375 19.625 C13.64036133 21.40970703 13.64036133 21.40970703 14.35742188 23.23046875 C15.0293457 24.96103516 15.0293457 24.96103516 15.71484375 26.7265625 C16.12855225 27.78439941 16.54226074 28.84223633 16.96850586 29.93212891 C17.98640968 32.95957964 18.56727598 35.84049349 19 39 C16.36 39 13.72 39 11 39 C11 38.34 11 37.68 11 37 C11.99 36.505 11.99 36.505 13 36 C12.32202843 33.08720264 11.44247403 30.32800037 10.40625 27.5234375 C9.94412109 26.27046875 9.94412109 26.27046875 9.47265625 24.9921875 C8.99119141 23.69667969 8.99119141 23.69667969 8.5 22.375 C8.17902344 21.50359375 7.85804688 20.6321875 7.52734375 19.734375 C5.92228024 15.29947105 5.92228024 15.29947105 4 11 C3.79503906 11.62648437 3.59007812 12.25296875 3.37890625 12.8984375 C3.10949219 13.71570313 2.84007812 14.53296875 2.5625 15.375 C2.29566406 16.18710938 2.02882812 16.99921875 1.75390625 17.8359375 C1 20 1 20 0 22 C-0.66 22 -1.32 22 -2 22 C-2.05434116 19.4580411 -2.0938339 16.91726318 -2.125 14.375 C-2.14175781 13.66214844 -2.15851563 12.94929687 -2.17578125 12.21484375 C-2.21684602 7.7387836 -1.69086567 4.22050722 0 0 Z " fill="#B2B4B4" transform="translate(239,142)"/>
<path d="M0 0 C6.73742646 -0.11044961 13.29980211 0.29867087 20 1 C20.495 1.99 20.495 1.99 21 3 C20.34 3 19.68 3 19 3 C19.495 4.485 19.495 4.485 20 6 C13.07 6 6.14 6 -1 6 C-2.65 7.32 -4.3 8.64 -6 10 C-6.66 10 -7.32 10 -8 10 C-8.26554687 10.58265625 -8.53109375 11.1653125 -8.8046875 11.765625 C-10.03302996 14.06174228 -11.40314939 15.80356018 -13.125 17.75 C-13.93324219 18.67039062 -13.93324219 18.67039062 -14.7578125 19.609375 C-15.16773438 20.06828125 -15.57765625 20.5271875 -16 21 C-16.33 21 -16.66 21 -17 21 C-17.30003987 17.99960128 -17.25814085 15.63176578 -16.109375 12.8203125 C-15.11518527 10.85293704 -14.08938187 8.9161449 -13 7 C-11.75264433 6.3490741 -10.50198168 5.70448331 -9.25 5.0625 C-8.55390625 4.70285156 -7.8578125 4.34320313 -7.140625 3.97265625 C-5.09775567 3.04441818 -3.18884624 2.46833422 -1 2 C-0.67 1.34 -0.34 0.68 0 0 Z " fill="#E0DAD8" transform="translate(56,89)"/>
<path d="M0 0 C0.33 0.66 0.66 1.32 1 2 C7.24983116 2.73460945 12.75844353 3.05988695 19 2 C21.67375963 1.91466725 24.32393666 1.95305152 27 2 C23.31265242 4.45823172 20.30300029 5.01242616 16 6 C16.18175781 6.68102783 16.36351562 7.36205566 16.55078125 8.0637207 C17.37101486 11.14564333 18.18557005 14.22903886 19 17.3125 C19.42925781 18.9202832 19.42925781 18.9202832 19.8671875 20.56054688 C20.13789063 21.58857422 20.40859375 22.61660156 20.6875 23.67578125 C20.93886719 24.62364502 21.19023437 25.57150879 21.44921875 26.5480957 C22 29 22 29 22 32 C20.68 31.67 19.36 31.34 18 31 C16.02 24.4 14.04 17.8 12 11 C11.01 10.34 10.02 9.68 9 9 C9 8.01 9 7.02 9 6 C8.31292969 5.87882813 7.62585938 5.75765625 6.91796875 5.6328125 C6.01691406 5.46523437 5.11585938 5.29765625 4.1875 5.125 C3.29417969 4.96257812 2.40085938 4.80015625 1.48046875 4.6328125 C-1 4 -1 4 -4 2 C-2.68 1.34 -1.36 0.68 0 0 Z " fill="#B2B5B8" transform="translate(193,152)"/>
<path d="M0 0 C2.31 0.33 4.62 0.66 7 1 C7.33 1.99 7.66 2.98 8 4 C3.375 8.875 3.375 8.875 0 10 C-0.226875 10.5775 -0.45375 11.155 -0.6875 11.75 C-2 14 -2 14 -7 18 C-8.65 22.29 -10.3 26.58 -12 31 C-14.31 30.67 -16.62 30.34 -19 30 C-18.67 29.34 -18.34 28.68 -18 28 C-17.34 28 -16.68 28 -16 28 C-15.86464844 27.45472656 -15.72929687 26.90945312 -15.58984375 26.34765625 C-13.71897372 19.79400975 -10.68670472 14.94378135 -6 10 C-4.04889113 8.41525655 -2.20083273 7.23461348 0 6 C0 4.02 0 2.04 0 0 Z " fill="#B4B2B3" transform="translate(280,165)"/>
<path d="M0 0 C0 0.99 0 1.98 0 3 C-0.474375 3.5775 -0.94875 4.155 -1.4375 4.75 C-2.99795779 6.99705922 -3.4427226 8.37283514 -4 11 C-4.32613281 11.66515625 -4.65226563 12.3303125 -4.98828125 13.015625 C-6.42434545 17.25173717 -6.46587332 21.36689829 -6.625 25.8125 C-6.66367188 26.69615234 -6.70234375 27.57980469 -6.7421875 28.49023438 C-6.83600784 30.65982972 -6.91907326 32.82988547 -7 35 C-7.99 35.66 -8.98 36.32 -10 37 C-11.92466483 30.62454776 -12.7684565 24.65687017 -12 18 C-10.97694448 14.49742075 -9.59551055 11.27680124 -8 8 C-7.69191406 7.35417969 -7.38382813 6.70835938 -7.06640625 6.04296875 C-6.40104191 4.68358802 -5.70489852 3.33930719 -5 2 C-3.68 1.67 -2.36 1.34 -1 1 C-0.67 0.67 -0.34 0.34 0 0 Z " fill="#A2A9B3" transform="translate(179,96)"/>
<path d="M0 0 C0.33 0.66 0.66 1.32 1 2 C1.66 2.33 2.32 2.66 3 3 C3 3.66 3 4.32 3 5 C4.65 5.33 6.3 5.66 8 6 C8.33 6.66 8.66 7.32 9 8 C9.99 8.33 10.98 8.66 12 9 C12 10.32 12 11.64 12 13 C6.06 13.495 6.06 13.495 0 14 C-0.66 15.65 -1.32 17.3 -2 19 C-4.64 19 -7.28 19 -10 19 C-10 18.34 -10 17.68 -10 17 C-8.68 16.67 -7.36 16.34 -6 16 C-5.5978125 14.8553125 -5.5978125 14.8553125 -5.1875 13.6875 C-4.05575888 11.12619116 -3.08776599 9.80307062 -1 8 C-0.67 5.36 -0.34 2.72 0 0 Z " fill="#BDBFBF" transform="translate(236,162)"/>
<path d="M0 0 C0.99 0.33 1.98 0.66 3 1 C2.31366149 3.78945613 1.57946809 6.56088379 0.80859375 9.328125 C0.58623047 10.12734375 0.36386719 10.9265625 0.13476562 11.75 C-0.09533203 12.575 -0.32542969 13.4 -0.5625 14.25 C-0.79646484 15.09046875 -1.03042969 15.9309375 -1.27148438 16.796875 C-1.84718938 18.86471337 -2.42353229 20.93237412 -3 23 C-3.66 23.66 -4.32 24.32 -5 25 C-6.98 25 -8.96 25 -11 25 C-10.505 23.515 -10.505 23.515 -10 22 C-9.34 21.67 -8.68 21.34 -8 21 C-6.35 15.06 -4.7 9.12 -3 3 C-2.01 2.01 -1.02 1.02 0 0 Z " fill="#AFAFAF" transform="translate(203,170)"/>
<path d="M0 0 C2.97 0.495 2.97 0.495 6 1 C5.01 1.33 4.02 1.66 3 2 C3.33 3.32 3.66 4.64 4 6 C4.99 6.99 5.98 7.98 7 9 C7.50435694 10.9363704 8.00333874 12.87414146 8.5 14.8125 C8.7784375 15.89144531 9.056875 16.97039062 9.34375 18.08203125 C10 21 10 21 10 24 C8.68 23.34 7.36 22.68 6 22 C4.68 18.7 3.36 15.4 2 12 C1.01 12 0.02 12 -1 12 C-1.33 9.69 -1.66 7.38 -2 5 C-1.34 5 -0.68 5 0 5 C-0.33 3.68 -0.66 2.36 -1 1 C-0.67 0.67 -0.34 0.34 0 0 Z " fill="#B6B8B7" transform="translate(260,153)"/>
<path d="M0 0 C0.66 0.99 1.32 1.98 2 3 C2.99 3.33 3.98 3.66 5 4 C3.75297849 10.35450323 2.42635741 16.68327435 1 23 C-0.65 23.66 -2.3 24.32 -4 25 C-3.40380045 20.13103697 -2.43023178 15.67209049 -1 11 C-1.66 11 -2.32 11 -3 11 C-3.33 10.01 -3.66 9.02 -4 8 C-2.68 5.36 -1.36 2.72 0 0 Z " fill="#B2B2B3" transform="translate(223,155)"/>
<path d="M0 0 C1.98 0 3.96 0 6 0 C6.33820166 1.5823006 6.67035939 3.16589375 7 4.75 C7.185625 5.63171875 7.37125 6.5134375 7.5625 7.421875 C8 10 8 10 8 14 C4.7 14 1.4 14 -2 14 C-1 4.42857143 -1 4.42857143 0 0 Z " fill="#E7F6FD" transform="translate(201,131)"/>
<path d="M0 0 C1.65 0 3.3 0 5 0 C5.66 4.62 6.32 9.24 7 14 C3.7 14 0.4 14 -3 14 C-2.69147815 12.041036 -2.3780582 10.08284287 -2.0625 8.125 C-1.88847656 7.03445312 -1.71445312 5.94390625 -1.53515625 4.8203125 C-1 2 -1 2 0 0 Z " fill="#E5F0FA" transform="translate(277,131)"/>
<path d="M0 0 C0.99 0 1.98 0 3 0 C3.33 5.61 3.66 11.22 4 17 C4.33 17 4.66 17 5 17 C5 22.28 5 27.56 5 33 C4.34 33 3.68 33 3 33 C0.89350449 29.48917415 0.34758094 26.01485065 0 22 C-0.11361564 18.18626637 -0.09476717 14.377472 -0.0625 10.5625 C-0.05798828 9.54478516 -0.05347656 8.52707031 -0.04882812 7.47851562 C-0.03712437 4.98561491 -0.02072848 2.49283926 0 0 Z " fill="#D5C878" transform="translate(19,118)"/>
<path d="M0 0 C0.66 0.33 1.32 0.66 2 1 C1.56899972 4.34025221 0.57678781 6.88554091 -0.9375 9.84375 C-3.66061798 15.87656955 -4.13558918 22.03167444 -4.75 28.5625 C-4.87503906 29.76197266 -5.00007813 30.96144531 -5.12890625 32.19726562 C-5.43273885 35.13041878 -5.72274581 38.06423588 -6 41 C-6.33 41 -6.66 41 -7 41 C-7.08821107 37.04181074 -7.14079412 33.08387938 -7.1875 29.125 C-7.21263672 28.01640625 -7.23777344 26.9078125 -7.26367188 25.765625 C-7.32586104 18.71751967 -6.71935075 12.55228178 -4 6 C-2.79219859 3.83511408 -1.5089059 1.97718704 0 0 Z " fill="#917728" transform="translate(29,103)"/>
<path d="M0 0 C0.33 0.66 0.66 1.32 1 2 C0.67 3.155 0.34 4.31 0 5.5 C-1.82247006 12.89402138 -0.93845143 18.73080712 1 26 C1 27.32 1 28.64 1 30 C1.66 30 2.32 30 3 30 C3 30.66 3 31.32 3 32 C2.34 32 1.68 32 1 32 C1.33 33.32 1.66 34.64 2 36 C0.515 36.495 0.515 36.495 -1 37 C-2.32 34.36 -3.64 31.72 -5 29 C-4.67 27.68 -4.34 26.36 -4 25 C-3.89178564 23.55703024 -3.82354328 22.11067342 -3.7890625 20.6640625 C-3.76070312 19.84679687 -3.73234375 19.02953125 -3.703125 18.1875 C-3.65128637 16.48719304 -3.60694302 14.78664007 -3.5703125 13.0859375 C-3.41597746 8.99605896 -3.093852 6.2196232 -1.4609375 2.3984375 C-0.97882813 1.60695313 -0.49671875 0.81546875 0 0 Z " fill="#868285" transform="translate(175,106)"/>
<path d="M0 0 C1.32 0 2.64 0 4 0 C4.33 1.32 4.66 2.64 5 4 C3.87548273 6.9719385 2.77706209 9.33440687 1 12 C0.33841957 14.04584079 0.33841957 14.04584079 -0.125 16.1875 C-0.41375 17.445625 -0.7025 18.70375 -1 20 C-2.98 20.99 -2.98 20.99 -5 22 C-3.68 15.07 -2.36 8.14 -1 1 C-0.67 0.67 -0.34 0.34 0 0 Z " fill="#9B9B9A" transform="translate(364,104)"/>
<path d="M0 0 C1.88297062 2.82445592 2.4229435 4.23395272 3.0703125 7.44921875 C3.24433594 8.29677734 3.41835937 9.14433594 3.59765625 10.01757812 C3.77167969 10.89865234 3.94570312 11.77972656 4.125 12.6875 C4.39763672 14.02651367 4.39763672 14.02651367 4.67578125 15.39257812 C5.12311409 17.59392657 5.5642764 19.79632949 6 22 C4.68 22 3.36 22 2 22 C1.32506659 19.77332235 0.66036956 17.54354023 0 15.3125 C-0.37125 14.07113281 -0.7425 12.82976562 -1.125 11.55078125 C-1.87703457 8.4989981 -2.19034899 6.11101638 -2 3 C-1.34 3 -0.68 3 0 3 C0 2.01 0 1.02 0 0 Z " fill="#ADADAD" transform="translate(190,161)"/>
<path d="M0 0 C1.916588 -0.02712153 3.8332873 -0.04645097 5.75 -0.0625 C7.35101563 -0.07990234 7.35101563 -0.07990234 8.984375 -0.09765625 C11.53368501 -0.01510087 13.57933591 0.25382442 16 1 C15.67 1.99 15.34 2.98 15 4 C-1.83 4 -18.66 4 -36 4 C-36 3.67 -36 3.34 -36 3 C-13.725 2.505 -13.725 2.505 9 2 C6.03 1.67 3.06 1.34 0 1 C0 0.67 0 0.34 0 0 Z " fill="#D5C8A2" transform="translate(164,74)"/>
<path d="M0 0 C0.66 0.33 1.32 0.66 2 1 C0.83348574 6.92863717 -0.75519358 12.38798394 -3 18 C-5.31 18 -7.62 18 -10 18 C-9.505 16.515 -9.505 16.515 -9 15 C-7.68 15 -6.36 15 -5 15 C-4.34 10.71 -3.68 6.42 -3 2 C-2.34 2 -1.68 2 -1 2 C-0.67 1.34 -0.34 0.68 0 0 Z " fill="#A9A9A9" transform="translate(221,177)"/>
<path d="M0 0 C-0.33 0.66 -0.66 1.32 -1 2 C-2.17755859 2.41958984 -2.17755859 2.41958984 -3.37890625 2.84765625 C-9.24477513 5.08604302 -14.27257957 7.17921786 -18.53125 11.88671875 C-21.34690155 15.93796207 -23.20437586 20.42405462 -25 25 C-25.66 25 -26.32 25 -27 25 C-25.22454278 18.2719516 -22.64482583 13.20173096 -18 8 C-13.23836655 3.48897883 -6.8081605 -0.85102006 0 0 Z " fill="#636763" transform="translate(274,88)"/>
<path d="M0 0 C0.99 0.33 1.98 0.66 3 1 C3 3.64 3 6.28 3 9 C2.67 9 2.34 9 2 9 C2 7.35 2 5.7 2 4 C0.68 4 -0.64 4 -2 4 C-2 19.18 -2 34.36 -2 50 C-2.33 50 -2.66 50 -3 50 C-3 34.16 -3 18.32 -3 2 C-2.01 1.34 -1.02 0.68 0 0 Z " fill="#E3E4E3" transform="translate(329,101)"/>
<path d="M0 0 C0.66 0 1.32 0 2 0 C1.67 0.99 1.34 1.98 1 3 C0.67 2.01 0.34 1.02 0 0 Z " fill="#F1F3F2" transform="translate(367,151)"/>
</svg>
